<svg xmlns="http://www.w3.org/2000/svg" width="2000" height="1400"><path fill="#fff" d="M0 0h2000v1400H0z"/><rect x="1704" y="1027" width="9" height="18" fill="#90AACB" rx="0" transform="matrix(.24143 .95236 -.97158 .30944 2164.365 -822.152)"/><rect x="986" y="639" width="8" height="11" fill="#FEF1E6" rx="0" transform="matrix(-.8584 .47671 -.4833 -.89657 2242.637 575.828)"/><rect x="1686" y="706" width="12" height="19" fill="#F9D5A7" rx="0" transform="matrix(.76987 .87454 -.69898 .50491 1057.6 -887.686)"/><rect x="1795" y="580" width="8" height="23" fill="#FEF1E6" rx="0" transform="matrix(.97965 .40898 -.24478 .91858 235.974 -498.506)"/><rect x="489" y="58" width="9" height="25" fill="#90AACB" rx="0" transform="matrix(-.9239 .30906 -.39208 -.9512 982.622 -6.35)"/><rect x="556" y="150" width="10" height="22" fill="#FFB085" rx="0" transform="matrix(-.61351 .5308 -.86288 -.8834 1097.155 145.32)"/><rect x="1226" y="405" width="13" height="37" fill="#90AACB" rx="0" transform="matrix(-.56251 .68575 -.85503 -.73538 2389.117 -239.8)"/><rect x="1229" y="217" width="8" height="8" fill="#FFB085" rx="0" transform="matrix(.10046 1.02234 -.97815 0 1274.53 -777.464)"/><rect x="1223" y="293" width="11" height="23" fill="#F9D5A7" rx="0" transform="matrix(.72784 .8573 -.72912 .51512 631.614 -884.1)"/><rect x="1967" y="1378" width="11" height="27" fill="#F9D5A7" rx="0" transform="matrix(.67428 .64436 -.74836 .76792 1596.158 -1085.98)"/><rect x="407" y="800" width="11" height="14" fill="#F9D5A7" rx="0" transform="matrix(-.98707 -.05299 .03757 -1.01108 666.752 1710.13)"/><rect x="1092" y="685" width="10" height="23" fill="#F9D5A7" rx="0" transform="matrix(.88295 .67332 -.46947 .77456 455.393 -328.347)"/><rect x="50" y="1090" width="11" height="22" fill="#FFB085" rx="0" transform="matrix(.4051 .95262 -.91025 .32801 996.515 693.802)"/><rect x="388" y="428" width="13" height="30" fill="#FFB085" rx="0" transform="matrix(.732 .53284 -.70529 .85272 375.962 -186.423)"/><rect x="132" y="68" width="10" height="14" fill="#FEF1E6" rx="0" transform="matrix(-.03498 1.00046 -.99893 -.01746 212.53 -55.969)"/><rect x="88" y="852" width="11" height="26" fill="#90AACB" rx="0" transform="matrix(1.01926 .12254 .14062 .99801 15.125 .088)"/><rect x="1449" y="258" width="9" height="12" fill="#90AACB" rx="0" transform="matrix(.98946 -.0351 .16224 1.0049 -1.836 -103.056)"/><rect x="1239" y="773" width="8" height="19" fill="#90AACB" rx="0" transform="matrix(.96124 .53024 -.34762 .84857 504.467 -584)"/><rect x="289" y="1120" width="10" height="23" fill="#FEF1E6" rx="0" transform="matrix(.9563 .20791 -.31072 .97815 245.502 -36.4)"/><rect x="753" y="409" width="10" height="19" fill="#90AACB" rx="0" transform="matrix(.28834 .9894 -1.07728 -.22842 1180.401 -102.216)"/><rect x="798" y="1067" width="12" height="12" fill="#FEF1E6" rx="0" transform="matrix(-.99618 -.07028 -.01724 -1.00506 1582.505 2306.649)"/><rect x="96" y="826" width="11" height="12" fill="#FEF1E6" rx="0" transform="matrix(1.02615 .43965 -.07395 .94283 134.207 32.044)"/><rect x="757" y="329" width="10" height="25" fill="#FFB085" rx="0" transform="matrix(-.506 .7731 -.8379 -.6961 1384.725 208.62)"/><rect x="1959" y="93" width="9" height="18" fill="#FEF1E6" rx="0" transform="matrix(-.9009 .60411 -.45978 -.80169 3785.422 -1174.19)"/><rect x="1681" y="1361" width="9" height="17" fill="#90AACB" rx="0" transform="matrix(-.46684 .86933 -.88078 -.50191 3828.626 444.142)"/><rect x="1261" y="1246" width="10" height="18" fill="#FFB085" rx="0" transform="matrix(-.95054 .1573 -.35597 -.99313 3259.13 2169.178)"/><rect x="289" y="139" width="10" height="20" fill="#F9D5A7" rx="0" transform="matrix(-.98238 .05234 -.35942 -.99878 683.12 277.298)"/><rect x="1602" y="715" width="12" height="14" fill="#F9D5A7" rx="0" transform="matrix(.98666 .31287 -.1596 .96291 279.554 -730.998)"/><rect x="700" y="911" width="10" height="27" fill="#90AACB" rx="0" transform="matrix(-.98725 .17375 -.15627 -.9854 1495.743 1737.632)"/><rect x="130" y="1004" width="10" height="20" fill="#FEF1E6" rx="0" transform="matrix(-.3272 .96848 -.93872 -.2777 949.317 1181.426)"/><rect x="1795" y="79" width="13" height="24" fill="#F9D5A7" rx="0" transform="matrix(-.69575 .86933 -.74861 -.50191 3132.385 -1587.041)"/><rect x="1151" y="98" width="8" height="13" fill="#FEF1E6" rx="0" transform="matrix(-.66653 .71802 -.7262 -.71802 1979.657 -853.432)"/><rect x="1825" y="1050" width="13" height="31" fill="#FFB085" rx="0" transform="matrix(.83143 .58431 -.52402 .83448 667.303 -537.802)"/><rect x="251" y="1251" width="12" height="25" fill="#FFB085" rx="0" transform="matrix(.80596 .66099 -.58575 .76038 744.735 164.446)"/><rect x="497" y="277" width="7" height="7" fill="#FFB085" rx="0" transform="matrix(.455 .95262 -.89307 .32801 529.247 -226.84)"/><rect x="908" y="21" width="13" height="31" fill="#90AACB" rx="0" transform="matrix(-.48026 .7522 -.86564 -.7264 1374.254 -345.29)"/><rect x="1628" y="859" width="11" height="12" fill="#F9D5A7" rx="0" transform="matrix(-1.01556 .29309 -.09022 -.95864 3264.947 1101.243)"/><rect x="1432" y="636" width="12" height="12" fill="#FFB085" rx="0" transform="matrix(1.01237 .7731 -.38196 .6961 451.53 -504.262)"/><rect x="988" y="987" width="13" height="15" fill="#F9D5A7" rx="0" transform="matrix(-.56472 .94798 -.8381 -.3639 2346.671 238.27)"/><rect x="301" y="715" width="11" height="15" fill="#F9D5A7" rx="0" transform="matrix(0 1 -1 -.23087 1029 653.563)"/><rect x="1759" y="900" width="13" height="20" fill="#F9D5A7" rx="0" transform="matrix(.50396 .78993 -.8722 .61716 1614.463 -1169.706)"/><rect x="1212" y="215" width="11" height="19" fill="#FFB085" rx="0" transform="matrix(-.60885 .71018 -.77761 -.73541 2099.558 -216.254)"/><rect x="1085" y="996" width="12" height="22" fill="#F9D5A7" rx="0" transform="matrix(.77434 .78316 -.62713 .65715 856.091 -277.274)"/><rect x="1252" y="769" width="9" height="24" fill="#FFB085" rx="0" transform="matrix(-.76899 .70721 -.645 -.70721 2642.096 466.652)"/><rect x="1955" y="520" width="10" height="15" fill="#90AACB" rx="0" transform="matrix(-.24307 .83745 -1.0239 -.58639 3142.989 -387.975)"/><rect x="1100" y="880" width="10" height="12" fill="#90AACB" rx="0" transform="matrix(-.93591 .29398 -.34034 -.96157 2388.201 1529.243)"/><rect x="339" y="988" width="10" height="14" fill="#F9D5A7" rx="0" transform="matrix(.98518 .08801 -.10143 1.00598 222.258 -84.577)"/><rect x="1118" y="695" width="10" height="20" fill="#FFB085" rx="0" transform="matrix(.61055 .88416 -.80638 .47012 1143.192 -678.197)"/><rect x="1639" y="537" width="8" height="13" fill="#FFB085" rx="0" transform="matrix(-.942 .25917 -.3428 -.96725 3399.01 729.484)"/><rect x="1050" y="395" width="10" height="28" fill="#F9D5A7" rx="0" transform="matrix(-.42094 .76635 -.93896 -.66618 1956.19 58.99)"/><rect x="82" y="810" width="7" height="19" fill="#FFB085" rx="0" transform="matrix(-.211 .90686 -1.00432 -.42288 1145.361 1085.524)"/><rect x="1843" y="843" width="9" height="13" fill="#90AACB" rx="0" transform="matrix(.97437 .46789 -.22495 .91828 238.447 -334.373)"/><rect x="96" y="1012" width="8" height="15" fill="#FFB085" rx="0" transform="matrix(-.21079 .82856 -1.04222 -.64734 1350.243 1629.104)"/><rect x="746" y="480" width="12" height="34" fill="#F9D5A7" rx="0" transform="matrix(-.46224 .83378 -.86351 -.60578 1456.828 358.562)"/><rect x="1805" y="1278" width="12" height="34" fill="#FEF1E6" rx="0" transform="matrix(-.97103 .08728 -.35903 -.99756 4424.414 2333.876)"/><rect x="329" y="18" width="11" height="11" fill="#F9D5A7" rx="0" transform="matrix(.33414 1.03887 -.9801 -.05445 258.313 -226.807)"/><rect x="247" y="1007" width="8" height="15" fill="#FFB085" rx="0" transform="matrix(-.1576 .96126 -.9951 -.27564 1424.66 1052.857)"/><rect x="487" y="638" width="10" height="18" fill="#90AACB" rx="0" transform="matrix(-.95986 -.09164 -.05905 -1.04746 874.66 1529.655)"/><rect x="191" y="1004" width="8" height="22" fill="#FFB085" rx="0" transform="matrix(.89303 .57788 -.45507 .8253 500.885 88.572)"/><rect x="237" y="933" width="8" height="11" fill="#FEF1E6" rx="0" transform="matrix(-.30215 .82954 -1.00168 -.55953 1574.149 1255.287)"/><rect x="868" y="327" width="13" height="24" fill="#FFB085" rx="0" transform="matrix(-.98562 -.09164 -.35356 -1.04746 1932.797 1058.372)"/><rect x="667" y="743" width="13" height="36" fill="#90AACB" rx="0" transform="matrix(1.0017 .10454 -.03485 .99467 90.929 -78.113)"/><rect x="1933" y="239" width="11" height="27" fill="#FFB085" rx="0" transform="matrix(.38683 1.00844 -.97135 .05285 1535.934 -1443.274)"/><rect x="1323" y="697" width="12" height="20" fill="#90AACB" rx="0" transform="matrix(.78291 .39676 -.676 .9347 700.019 -715.468)"/><rect x="206" y="701" width="10" height="19" fill="#FEF1E6" rx="0" transform="matrix(-.91676 .14634 -.31052 -1.04123 529.408 1487.975)"/><rect x="1192" y="705" width="7" height="15" fill="#90AACB" rx="0" transform="matrix(-.97496 .20947 -.18707 -.9855 2373.582 1311.028)"/><rect x="1628" y="1104" width="12" height="17" fill="#F9D5A7" rx="0" transform="matrix(-.96775 .15653 -.2784 -.98829 3692.195 1899.143)"/><rect x="180" y="475" width="12" height="30" fill="#F9D5A7" rx="0" transform="matrix(.06963 1.00382 -.9962 0 652.346 319.562)"/><rect x="1466" y="274" width="12" height="14" fill="#F9D5A7" rx="0" transform="matrix(.9685 .27631 -.24156 .9636 100.842 -293.57)"/><rect x="1661" y="1356" width="9" height="15" fill="#F9D5A7" rx="0" transform="matrix(-.89287 .21861 -.37372 -1.02849 3428.273 2942.896)"/><rect x="131" y="1159" width="9" height="18" fill="#FEF1E6" rx="0" transform="matrix(.5517 .95338 -.86964 .30977 1452.918 667.529)"/><rect x="77" y="1027" width="8" height="16" fill="#FEF1E6" rx="0" transform="matrix(1.03298 .48488 -.1988 .87475 558.977 88.941)"/><rect x="746" y="117" width="9" height="19" fill="#FFB085" rx="0" transform="matrix(-.87462 .34628 -.48481 -.9514 1468.23 105.835)"/><rect x="632" y="1140" width="8" height="8" fill="#FFB085" rx="0" transform="matrix(-.38881 .92493 -.90805 -.4118 1747.157 1127.582)"/><rect x="1541" y="1344" width="11" height="20" fill="#90AACB" rx="0" transform="matrix(-.8598 .28289 -.53651 -.98655 3692.281 2609.336)"/><rect x="413" y="710" width="7" height="16" fill="#FEF1E6" rx="0" transform="matrix(.87292 .73044 -.52607 .70537 499.89 -19.246)"/><rect x="769" y="852" width="8" height="21" fill="#FFB085" rx="0" transform="matrix(.92058 .96651 -.68127 .37101 1017.285 2.514)"/><rect x="852" y="969" width="13" height="27" fill="#90AACB" rx="0" transform="matrix(.39402 .98558 -.89417 .30132 1251.83 54.378)"/><rect x="1054" y="790" width="7" height="11" fill="#FFB085" rx="0" transform="matrix(-.83908 .57366 -.54485 -.81928 2335.598 859.044)"/><rect x="1716" y="609" width="11" height="25" fill="#90AACB" rx="0" transform="matrix(-.77487 .58639 -.59871 -.83745 3271.154 498.422)"/><rect x="1015" y="347" width="7" height="11" fill="#FEF1E6" rx="0" transform="matrix(-.80395 .6625 -.58458 -.76213 2054.36 -196.754)"/><rect x="1471" y="907" width="9" height="18" fill="#FEF1E6" rx="0" transform="matrix(-.87883 .62028 -.48731 -.79393 3192.93 546.84)"/><rect x="1231" y="397" width="11" height="15" fill="#FFB085" rx="0" transform="matrix(-1.00047 .24494 -.07 -.9824 2498.257 303.17)"/><rect x="415" y="1095" width="12" height="17" fill="#FFB085" rx="0" transform="matrix(1.03246 .1392 .16213 .99042 125.956 -40.68)"/><rect x="715" y="1305" width="12" height="26" fill="#F9D5A7" rx="0" transform="matrix(.96674 .3092 -.25876 .95164 478.134 -184.371)"/><rect x="1964" y="160" width="10" height="27" fill="#FFB085" rx="0" transform="matrix(-.09763 .99449 -.98833 -.17535 2310.772 -2030.944)"/><rect x="353" y="810" width="10" height="19" fill="#FEF1E6" rx="0" transform="matrix(.98112 .1046 -.22624 .99513 121.557 -45.953)"/><rect x="1048" y="469" width="11" height="30" fill="#F9D5A7" rx="0" transform="matrix(1.05289 .26136 .10332 .97542 40.198 -115.388)"/><rect x="862" y="139" width="9" height="15" fill="#F9D5A7" rx="0" transform="matrix(-.34155 .89657 -.93376 -.47671 1297.329 -713.325)"/><rect x="281" y="1231" width="11" height="12" fill="#FFB085" rx="0" transform="matrix(.24707 .99817 -.98455 .0698 1694.415 854.678)"/><rect x="1628" y="491" width="10" height="19" fill="#90AACB" rx="0" transform="matrix(.9896 .03498 -.24533 1.00183 85.469 -172.237)"/><rect x="1153" y="472" width="13" height="37" fill="#FEF1E6" rx="0" transform="matrix(-.7723 .62028 -.62366 -.79393 2294.372 303.07)"/><rect x="259" y="708" width="8" height="14" fill="#FEF1E6" rx="0" transform="matrix(-.92022 .12744 -.35234 -1.0379 715.259 1503.988)"/><rect x="185" y="98" width="13" height="27" fill="#90AACB" rx="0" transform="matrix(.1722 .96828 -.98661 .25945 248.749 -89.464)"/><rect x="1315" y="916" width="13" height="26" fill="#FEF1E6" rx="0" transform="matrix(1.05523 .34628 .01142 .9514 158.357 -203.165)"/><rect x="351" y="847" width="11" height="21" fill="#F9D5A7" rx="0" transform="matrix(1.05606 .60411 -.25388 .80169 503.714 -14.123)"/><rect x="381" y="943" width="7" height="14" fill="#FEF1E6" rx="0" transform="matrix(.9752 .50771 -.28053 .87939 347.21 -12.834)"/><rect x="243" y="447" width="7" height="14" fill="#FFB085" rx="0" transform="matrix(.90089 .7522 -.45944 .7264 251.504 14.158)"/><rect x="476" y="629" width="12" height="34" fill="#F9D5A7" rx="0" transform="matrix(.37698 1.0049 -1.0083 -.0351 1164.641 234.97)"/><rect x="1855" y="607" width="8" height="11" fill="#F9D5A7" rx="0" transform="matrix(-.92502 .26563 -.31246 -.99133 3605.005 1155.075)"/><rect x="424" y="351" width="11" height="28" fill="#90AACB" rx="0" transform="matrix(1.00096 .01748 .12486 1.00122 20.586 -30.46)"/><rect x="1988" y="1186" width="11" height="32" fill="#FEF1E6" rx="0" transform="matrix(.64215 .98169 -.8704 .22664 2201.915 -782.645)"/><rect x="468" y="1123" width="9" height="21" fill="#90AACB" rx="0" transform="matrix(.99985 0 .17696 1.00015 18.218 -8.42)"/><rect x="632" y="816" width="10" height="18" fill="#FFB085" rx="0" transform="matrix(-.88416 .16055 -.64622 -1.01367 1993.807 1706.07)"/><rect x="909" y="780" width="12" height="29" fill="#F9D5A7" rx="0" transform="matrix(-.85896 .26024 -.63687 -.97125 2462.333 1424.202)"/><rect x="1386" y="1067" width="11" height="32" fill="#FFB085" rx="0" transform="matrix(.03543 .98703 -1.00625 .19186 2382.878 -644.495)"/><rect x="1810" y="1170" width="10" height="24" fill="#90AACB" rx="0" transform="matrix(.30547 .96349 -.9445 .29457 2229.321 -692.053)"/><rect x="385" y="895" width="12" height="22" fill="#FEF1E6" rx="0" transform="matrix(-.91723 .26366 -.36956 -.984 1015.793 1770.419)"/><rect x="1473" y="223" width="12" height="28" fill="#FEF1E6" rx="0" transform="matrix(-.1053 .92775 -1.03534 -.37483 1940.327 -1097.953)"/><rect x="742" y="496" width="12" height="22" fill="#FFB085" rx="0" transform="matrix(-.44254 .80648 -.90647 -.60773 1570.683 316.993)"/><rect x="1054" y="1072" width="7" height="15" fill="#F9D5A7" rx="0" transform="matrix(.45272 .86189 -.88822 .51788 1571.405 -502.141)"/><rect x="1666" y="991" width="8" height="9" fill="#FFB085" rx="0" transform="matrix(-.67613 .34433 -.94058 -1 4245.784 1991)"/><rect x="1937" y="373" width="10" height="28" fill="#FFB085" rx="0" transform="matrix(.69438 1 -.81394 .26795 1084.881 -1138.339)"/><rect x="103" y="388" width="12" height="29" fill="#FFB085" rx="0" transform="matrix(1.03703 .65114 -.20844 .83342 141.703 33.608)"/><rect x="105" y="545" width="13" height="17" fill="#FEF1E6" rx="0" transform="matrix(-.37583 .88349 -.93205 -.46976 746.535 711.109)"/><rect x="269" y="119" width="7" height="12" fill="#FFB085" rx="0" transform="matrix(.92728 .36106 -.35398 .9406 75.304 -124.421)"/><rect x="412" y="496" width="8" height="21" fill="#F9D5A7" rx="0" transform="matrix(-1.00957 .31287 -.0891 -.96291 850.299 798.173)"/><rect x="1095" y="927" width="12" height="29" fill="#FFB085" rx="0" transform="matrix(-.34213 .95338 -.93774 -.30977 2253.513 260.47)"/><rect x="166" y="859" width="7" height="7" fill="#FEF1E6" rx="0" transform="matrix(-.01703 .98829 -1.01454 .15653 927.046 554.059)"/><rect x="1149" y="877" width="7" height="13" fill="#FFB085" rx="0" transform="matrix(.99785 .3102 -.1527 .95469 332.535 -418.301)"/><rect x="1294" y="463" width="7" height="11" fill="#90AACB" rx="0" transform="matrix(-.85028 .44513 -.50319 -.91266 2696.247 89.736)"/><rect x="932" y="1384" width="9" height="10" fill="#F9D5A7" rx="0" transform="matrix(-.05176 .98223 -1.00804 -.19093 2624.284 701.638)"/><rect x="314" y="927" width="13" height="19" fill="#FFB085" rx="0" transform="matrix(-.66713 .8516 -.741 -.55304 1243.63 1124.97)"/><rect x="1489" y="460" width="13" height="19" fill="#FFB085" rx="0" transform="matrix(.66208 .97887 -.79361 .33705 969.429 -751.933)"/><rect x="857" y="685" width="10" height="22" fill="#F9D5A7" rx="0" transform="matrix(-.98758 -.07106 -.0508 -1.01624 1688.268 1632.111)"/><rect x="1402" y="1049" width="8" height="15" fill="#F9D5A7" rx="0" transform="matrix(-.478 .62516 -.98778 -.80017 3520.458 1270.819)"/><rect x="306" y="927" width="8" height="20" fill="#FFB085" rx="0" transform="matrix(-1.03745 -.1769 -.2307 -1.00324 1059.746 1992.132)"/><rect x="820" y="1195" width="9" height="16" fill="#90AACB" rx="0" transform="matrix(-.89614 .58242 -.43714 -.83179 2107.706 1578.051)"/><rect x="1759" y="646" width="10" height="19" fill="#F9D5A7" rx="0" transform="matrix(-.43837 .9141 -.8988 -.40698 3126.446 -751.798)"/><rect x="838" y="566" width="7" height="8" fill="#F9D5A7" rx="0" transform="matrix(.96455 .64761 -.39462 .7718 385.64 -311.57)"/><rect x="72" y="211" width="9" height="12" fill="#90AACB" rx="0" transform="matrix(.71989 .80846 -.65396 .65468 134 35.023)"/><rect x="436" y="595" width="7" height="13" fill="#90AACB" rx="0" transform="matrix(.01746 1 -.99817 .1051 1041.918 52.586)"/><rect x="381" y="912" width="12" height="15" fill="#F9D5A7" rx="0" transform="matrix(-.75706 .71978 -.65823 -.69508 1237.745 1266.56)"/><rect x="1816" y="1330" width="9" height="25" fill="#90AACB" rx="0" transform="matrix(-.78306 .6887 -.61228 -.73854 4124.995 824.357)"/><rect x="1271" y="44" width="9" height="24" fill="#FFB085" rx="0" transform="matrix(.7175 .59511 -.6928 .8191 396.584 -950.954)"/><rect x="110" y="1119" width="11" height="29" fill="#FEF1E6" rx="0" transform="matrix(.95543 .36173 -.13948 .99384 19.19 4.975)"/><rect x="255" y="1232" width="10" height="21" fill="#90AACB" rx="0" transform="matrix(-.99034 .05234 -.2105 -.99863 975.832 2469.69)"/><rect x="648" y="1298" width="9" height="25" fill="#FFB085" rx="0" transform="matrix(.51056 1 -.8242 .34433 1238.124 431.432)"/><rect x="898" y="62" width="11" height="31" fill="#90AACB" rx="0" transform="matrix(-1.0049 .3956 -.16038 -.93198 1829.602 -350.798)"/><rect x="460" y="352" width="8" height="16" fill="#FFB085" rx="0" transform="matrix(-.9152 .46976 -.40752 -.88349 1023.353 443.884)"/><rect x="1275" y="679" width="12" height="15" fill="#FEF1E6" rx="0" transform="matrix(.41736 .96651 -.87444 .37101 1165.087 -463.06)"/><rect x="1287" y="958" width="9" height="26" fill="#FFB085" rx="0" transform="matrix(-.96549 .24207 -.25869 -.97089 2771.879 1646.199)"/><rect x="1612" y="1354" width="13" height="33" fill="#F9D5A7" rx="0" transform="matrix(-.97796 .03524 -.36982 -1.00921 4018.774 2924.051)"/><rect x="1670" y="850" width="7" height="18" fill="#F9D5A7" rx="0" transform="matrix(.2937 .92065 -.96153 .3908 1898.895 -988.178)"/><rect x="426" y="1152" width="11" height="16" fill="#90AACB" rx="0" transform="matrix(-.94888 .19268 -.30827 -.99127 1177.224 2287.378)"/><rect x="916" y="299" width="10" height="27" fill="#FEF1E6" rx="0" transform="matrix(.76105 .61905 -.64128 .79235 362.952 -408.456)"/><rect x="784" y="949" width="7" height="18" fill="#F9D5A7" rx="0" transform="matrix(-.62444 .60325 -.79822 -.8303 2103.683 1460.177)"/><rect x="704" y="720" width="7" height="18" fill="#FEF1E6" rx="0" transform="matrix(.94098 .19224 -.36085 .989 271.161 -214.862)"/><rect x="280" y="580" width="13" height="29" fill="#FEF1E6" rx="0" transform="matrix(.42806 .82228 -.9164 .57577 658.84 -8.443)"/><rect x="973" y="46" width="10" height="27" fill="#F9D5A7" rx="0" transform="matrix(.36142 1.0267 -.94238 .08982 691.195 -706.106)"/><rect x="1129" y="1009" width="7" height="18" fill="#90AACB" rx="0" transform="matrix(.74265 .85769 -.7197 .51535 1268.247 -438.414)"/><rect x="1344" y="646" width="7" height="13" fill="#F9D5A7" rx="0" transform="matrix(-.97397 .10454 -.29858 -.99467 2988.446 1137.13)"/><rect x="1723" y="1033" width="12" height="20" fill="#F9D5A7" rx="0" transform="matrix(.0524 1 -1.00924 -.17633 2761.664 -197.222)"/><rect x="1615" y="731" width="8" height="18" fill="#FEF1E6" rx="0" transform="matrix(.97777 .91963 -.5454 .50976 778.832 -600.057)"/><rect x="541" y="906" width="10" height="16" fill="#90AACB" rx="0" transform="matrix(-1.00325 .0872 .00052 -.9968 978.733 1796.528)"/><rect x="570" y="396" width="11" height="18" fill="#FFB085" rx="0" transform="matrix(.61355 .95236 -.85067 .30944 683.521 -238.247)"/><rect x="1629" y="1201" width="10" height="13" fill="#90AACB" rx="0" transform="matrix(-.5201 .70288 -.865 -.75374 3584.705 1376.546)"/><rect x="498" y="403" width="13" height="25" fill="#F9D5A7" rx="0" transform="matrix(-.11239 1.00293 -.97928 -.15885 1037.502 -113.431)"/><rect x="1286" y="160" width="8" height="21" fill="#90AACB" rx="0" transform="matrix(-.75802 .6757 -.63807 -.75045 2375.499 -754.508)"/><rect x="135" y="609" width="7" height="8" fill="#90AACB" rx="0" transform="matrix(.82432 .67945 -.55627 .7546 343.066 80.742)"/><rect x="1983" y="1073" width="8" height="22" fill="#F9D5A7" rx="0" transform="matrix(.64054 1 -.82837 .26795 1839.368 -661.042)"/><rect x="1467" y="1139" width="12" height="34" fill="#F9D5A7" rx="0" transform="matrix(-1.00308 .12189 -.03484 -.9927 2866.603 2149.729)"/><rect x="422" y="332" width="11" height="17" fill="#FEF1E6" rx="0" transform="matrix(-.3583 .94027 -.93312 -.34223 879.771 69.994)"/><rect x="1809" y="72" width="8" height="21" fill="#90AACB" rx="0" transform="matrix(-.68895 .81928 -.73818 -.57366 3104.894 -1323.876)"/><rect x="1320" y="225" width="10" height="12" fill="#90AACB" rx="0" transform="matrix(-.3403 .87796 -.95038 -.48666 2024.117 -935.801)"/><rect x="401" y="668" width="7" height="16" fill="#FEF1E6" rx="0" transform="matrix(.81035 .65152 -.53417 .80456 313.574 -23.038)"/><rect x="515" y="715" width="9" height="20" fill="#FEF1E6" rx="0" transform="matrix(-.53927 .65468 -.86152 -.80846 1470.055 1119.994)"/><rect x="597" y="628" width="13" height="35" fill="#F9D5A7" rx="0" transform="matrix(-.20904 .9894 -.96245 -.22842 1231.828 302.256)"/><rect x="1354" y="59" width="7" height="11" fill="#F9D5A7" rx="0" transform="matrix(.83958 .84329 -.6406 .54764 310.75 -972.91)"/><rect x="564" y="441" width="13" height="14" fill="#FFB085" rx="0" transform="matrix(-.44273 .82954 -.90686 -.55953 1278.53 245.34)"/><rect x="1636" y="1344" width="12" height="24" fill="#90AACB" rx="0" transform="matrix(.19238 .95164 -.98831 .3092 2552.647 -683.209)"/><rect x="1340" y="829" width="13" height="13" fill="#F9D5A7" rx="0" transform="matrix(.73898 .90128 -.66551 .54154 885.281 -393.027)"/><rect x="525" y="922" width="8" height="23" fill="#90AACB" rx="0" transform="matrix(-.59661 .59003 -.87366 -.8121 1922.703 1425.758)"/><rect x="197" y="883" width="8" height="19" fill="#FFB085" rx="0" transform="matrix(.87626 .85437 -.6014 .55483 759.638 264.654)"/><rect x="1658" y="592" width="7" height="15" fill="#FEF1E6" rx="0" transform="matrix(-.05275 1.00388 -.98493 -.21338 2270.856 -556.932)"/><rect x="1835" y="740" width="7" height="19" fill="#FFB085" rx="0" transform="matrix(-.73915 .6527 -.6512 -.77786 3768.182 -191.665)"/><rect x="1265" y="701" width="7" height="15" fill="#FFB085" rx="0" transform="matrix(.36922 1.00613 -.97456 .05273 1658.613 -449.381)"/><rect x="690" y="1039" width="7" height="14" fill="#FFB085" rx="0" transform="matrix(-.76243 .44437 -.61536 -.95295 1777.011 1959.947)"/><rect x="1800" y="558" width="9" height="20" fill="#FEF1E6" rx="0" transform="matrix(-.81126 .4565 -.59843 -.89591 3709.708 63.48)"/><rect x="1337" y="589" width="10" height="18" fill="#FFB085" rx="0" transform="matrix(-.5889 .76651 -.81047 -.64318 2639.477 .827)"/><rect x="1543" y="1177" width="13" height="16" fill="#F9D5A7" rx="0" transform="matrix(.96459 .56045 -.2406 .89691 309.994 -212.73)"/><rect x="897" y="470" width="11" height="24" fill="#FEF1E6" rx="0" transform="matrix(-.83041 .64524 -.56015 -.76897 1914.908 191.354)"/><rect x="404" y="388" width="7" height="17" fill="#90AACB" rx="0" transform="matrix(.73973 .85828 -.66616 .57892 361.368 -73.602)"/><rect x="1730" y="848" width="13" height="23" fill="#FEF1E6" rx="0" transform="matrix(.89003 .5922 -.4636 .8151 762.589 -1082.642)"/><rect x="1950" y="354" width="7" height="11" fill="#FFB085" rx="0" transform="matrix(.75587 .8253 -.6824 .57788 785.222 -1220.62)"/><rect x="1349" y="107" width="13" height="21" fill="#F9D5A7" rx="0" transform="matrix(1.0457 .2808 .08551 .97925 -4.826 -114.7)"/><rect x="1175" y="71" width="9" height="9" fill="#F9D5A7" rx="0" transform="matrix(.24059 .9573 -.96176 .32963 960.554 -1265.342)"/><rect x="796" y="1043" width="9" height="20" fill="#FFB085" rx="0" transform="matrix(.37606 1.0094 -.89693 .25167 1286.45 209.507)"/><rect x="643" y="1200" width="7" height="17" fill="#F9D5A7" rx="0" transform="matrix(.70791 .66923 -.70803 .74326 959.197 -111.101)"/><rect x="277" y="286" width="9" height="25" fill="#F9D5A7" rx="0" transform="matrix(.30936 .92846 -.95207 .37512 473.654 -89.587)"/><rect x="51" y="741" width="13" height="27" fill="#FFB085" rx="0" transform="matrix(-.94195 .01835 -.52992 -1.0513 661.779 1565.335)"/><rect x="1309" y="436" width="8" height="9" fill="#F9D5A7" rx="0" transform="matrix(.94764 .73942 -.40478 .73942 320.716 -454.641)"/><rect x="86" y="172" width="11" height="29" fill="#F9D5A7" rx="0" transform="matrix(.98955 .35859 -.21087 .93415 63.575 -17.334)"/><rect x="714" y="825" width="13" height="22" fill="#90AACB" rx="0" transform="matrix(.49978 .85769 -.86562 .51535 1098.223 -237.96)"/><rect x="627" y="814" width="12" height="33" fill="#FEF1E6" rx="0" transform="matrix(-.15757 1.00367 -.9991 .01752 1494.675 125.249)"/><rect x="487" y="990" width="12" height="33" fill="#FFB085" rx="0" transform="matrix(.40441 .90763 -.90453 .44268 1302.538 44.197)"/><rect x="39" y="971" width="12" height="25" fill="#F9D5A7" rx="0" transform="matrix(.91778 .55953 -.42654 .82954 614.068 140.894)"/><rect x="1826" y="577" width="7" height="16" fill="#90AACB" rx="0" transform="matrix(-.77125 .5634 -.63153 -.83526 3686.553 -181.732)"/><rect x="696" y="79" width="10" height="29" fill="#F9D5A7" rx="0" transform="matrix(.99452 -.01758 -.10453 1.00736 13.614 -74.434)"/><rect x="1609" y="824" width="11" height="25" fill="#FEF1E6" rx="0" transform="matrix(-.29216 .94682 -.95557 -.32601 2869.456 -334.81)"/><rect x="1451" y="408" width="11" height="21" fill="#FEF1E6" rx="0" transform="matrix(-.9646 .08764 -.38552 -1.00168 3133.872 863.147)"/><rect x="820" y="1188" width="10" height="14" fill="#FEF1E6" rx="0" transform="matrix(-.48797 .69723 -.91096 -.7477 2484.425 1688.633)"/><rect x="1611" y="888" width="12" height="35" fill="#FFB085" rx="0" transform="matrix(.91728 .38298 -.34079 .9479 222.075 -228.389)"/><rect x="69" y="476" width="12" height="35" fill="#F9D5A7" rx="0" transform="matrix(-.12197 .9854 -.9933 -.17375 583.002 507.961)"/><rect x="716" y="655" width="9" height="25" fill="#FEF1E6" rx="0" transform="matrix(-1.01058 .08737 .10516 -.99863 1302.65 1220.752)"/><rect x="999" y="247" width="10" height="22" fill="#FEF1E6" rx="0" transform="matrix(.85994 .74873 -.56131 .67416 339.028 -544.377)"/><rect x="1060" y="293" width="11" height="26" fill="#FFB085" rx="0" transform="matrix(-.1589 .80846 -1.10823 -.65468 1749.288 -49.56)"/><rect x="657" y="701" width="13" height="33" fill="#90AACB" rx="0" transform="matrix(.87391 .66954 -.52299 .7436 619.198 -283.44)"/><rect x="230" y="259" width="8" height="19" fill="#F9D5A7" rx="0" transform="matrix(-.8364 .34433 -.47512 -1 508.23 537)"/><rect x="1632" y="549" width="11" height="23" fill="#FFB085" rx="0" transform="matrix(-.34524 .98297 -.95021 -.19107 2685.529 -1027.843)"/><rect x="1406" y="317" width="12" height="29" fill="#F9D5A7" rx="0" transform="matrix(-.55027 .71592 -.84654 -.71592 2498.695 -218.414)"/><rect x="231" y="1303" width="12" height="25" fill="#FEF1E6" rx="0" transform="matrix(-.97437 0 -.18911 -1.0263 668.853 2720.319)"/><rect x="455" y="109" width="8" height="17" fill="#F9D5A7" rx="0" transform="matrix(.64887 .78478 -.7488 .6355 230.022 -252.88)"/><rect x="750" y="1087" width="11" height="31" fill="#90AACB" rx="0" transform="matrix(-.51504 .93874 -.85717 -.37928 2089.638 691.773)"/><rect x="1844" y="1023" width="10" height="28" fill="#90AACB" rx="0" transform="matrix(-.9641 .0891 -.20327 -1.01845 3717.3 2321.399)"/><rect x="1038" y="877" width="10" height="10" fill="#90AACB" rx="0" transform="matrix(.5906 .89763 -.78668 .49756 1022.622 -252.278)"/><rect x="1195" y="1262" width="12" height="22" fill="#90AACB" rx="0" transform="matrix(.9479 .3639 -.27868 .94798 681.93 -582.59)"/><rect x="352" y="1353" width="9" height="21" fill="#FEF1E6" rx="0" transform="matrix(-.97183 -.1769 .14145 -1.00324 283.164 2863.779)"/><rect x="1784" y="1093" width="12" height="29" fill="#FFB085" rx="0" transform="matrix(1.04893 .27989 .0852 .9761 94.685 -158.897)"/><rect x="399" y="41" width="10" height="20" fill="#FEF1E6" rx="0" transform="matrix(.59168 .94027 -.84817 .34223 223.248 -332.213)"/><rect x="347" y="332" width="9" height="16" fill="#F9D5A7" rx="0" transform="matrix(-.12613 .8636 -1.08215 -.5189 888.263 256.03)"/><rect x="1761" y="601" width="12" height="33" fill="#F9D5A7" rx="0" transform="matrix(-.99558 -.01755 -.05205 -1.00536 3530.284 1455.034)"/><rect x="1005" y="1384" width="9" height="16" fill="#FEF1E6" rx="0" transform="matrix(-.8653 .62942 -.52023 -.77726 2438.415 1820.935)"/><rect x="1544" y="38" width="9" height="20" fill="#FEF1E6" rx="0" transform="matrix(1.0272 .29277 -.05578 .95762 -14.345 -370.171)"/><rect x="327" y="1366" width="7" height="18" fill="#FFB085" rx="0" transform="matrix(.34302 .96651 -.94273 .25898 1586.053 711.015)"/><rect x="1948" y="498" width="11" height="14" fill="#FEF1E6" rx="0" transform="matrix(.63163 .83106 -.77724 .56056 1170.472 -1538.164)"/><rect x="1172" y="354" width="7" height="10" fill="#FEF1E6" rx="0" transform="matrix(.29352 .8215 -1.00404 .59685 1164.163 -1028.213)"/><rect x="111" y="1267" width="7" height="13" fill="#FFB085" rx="0" transform="matrix(-.91767 .34333 -.39139 -.94328 895.578 2425.441)"/><rect x="17" y="410" width="10" height="16" fill="#FEF1E6" rx="0" transform="matrix(1.00107 .81964 -.46568 .61765 315.947 146.871)"/><rect x="1627" y="44" width="7" height="19" fill="#90AACB" rx="0" transform="matrix(-.88465 .55143 -.45124 -.84912 3086.327 -1058.421)"/><rect x="971" y="685" width="10" height="10" fill="#FFB085" rx="0" transform="matrix(-.48538 .89893 -.8757 -.43844 2030.462 98.13)"/><rect x="1335" y="536" width="7" height="10" fill="#90AACB" rx="0" transform="matrix(.3257 .95864 -.94357 .29309 1460.033 -994.296)"/><rect x="178" y="1276" width="11" height="24" fill="#90AACB" rx="0" transform="matrix(-.95106 0 -.36412 -1.05146 897.634 2701.906)"/><rect x="1080" y="375" width="7" height="14" fill="#FFB085" rx="0" transform="matrix(.9341 .24251 -.37703 .97267 194.017 -328.086)"/><rect x="1652" y="634" width="8" height="10" fill="#FEF1E6" rx="0" transform="matrix(-.90659 .61604 -.4629 -.7885 3361.054 64.86)"/><rect x="789" y="1196" width="8" height="16" fill="#FEF1E6" rx="0" transform="matrix(-.15058 .97758 -.98539 -.24374 2334.037 624.87)"/><rect x="441" y="799" width="9" height="25" fill="#F9D5A7" rx="0" transform="matrix(-.91855 .35924 -.39073 -.93586 1253.812 1379.755)"/><rect x="1005" y="247" width="12" height="17" fill="#F9D5A7" rx="0" transform="matrix(.96153 .59978 -.29407 .85658 123.886 -260.644)"/><rect x="313" y="1295" width="11" height="26" fill="#FFB085" rx="0" transform="matrix(.76802 .8768 -.62247 .59141 838.568 364.836)"/><rect x="376" y="977" width="9" height="9" fill="#90AACB" rx="0" transform="matrix(-1.00103 -.05299 -.22867 -1.01108 1113.747 2054.3)"/><rect x="1433" y="228" width="13" height="32" fill="#FFB085" rx="0" transform="matrix(-.35898 .95338 -.93226 -.30977 2141.407 -952.145)"/><rect x="1354" y="1258" width="12" height="21" fill="#FEF1E6" rx="0" transform="matrix(-.42707 .69386 -.94992 -.7982 3328.334 1805.646)"/><rect x="1153" y="356" width="7" height="15" fill="#FFB085" rx="0" transform="matrix(.93465 .58814 -.41383 .80951 306.564 -651.33)"/><rect x="366" y="972" width="13" height="16" fill="#FEF1E6" rx="0" transform="matrix(.57169 .92718 -.84756 .3746 1198.46 267.51)"/><rect x="1493" y="370" width="13" height="21" fill="#FFB085" rx="0" transform="matrix(.80565 .60513 -.5834 .80303 540.773 -990.05)"/><rect x="783" y="208" width="12" height="34" fill="#F9D5A7" rx="0" transform="matrix(.47385 .98162 -.83683 .37681 527.181 -377.922)"/><rect x="1791" y="328" width="13" height="14" fill="#FFB085" rx="0" transform="matrix(-.05144 .99163 -1.00121 -.13936 2259.22 -1494.966)"/><rect x="409" y="1026" width="8" height="18" fill="#FFB085" rx="0" transform="matrix(.89881 .3102 -.45749 .95469 445.444 -117.348)"/><rect x="614" y="1149" width="9" height="25" fill="#FFB085" rx="0" transform="matrix(-.15433 .94199 -1.00541 -.34286 2181.376 933.858)"/><rect x="719" y="787" width="7" height="20" fill="#FEF1E6" rx="0" transform="matrix(1.02446 .12204 .1493 .9939 110 -121.18)"/><rect x="975" y="939" width="12" height="15" fill="#F9D5A7" rx="0" transform="matrix(.809 .81964 -.61042 .61765 826.605 -215.69)"/><rect x="1838" y="658" width="13" height="32" fill="#FFB085" rx="0" transform="matrix(-1.0329 -.26925 -.14083 -1.00485 3992.317 2376.803)"/><rect x="367" y="579" width="12" height="20" fill="#90AACB" rx="0" transform="matrix(-.85534 .26136 -.63393 -.97542 1225.351 1118.455)"/><rect x="1986" y="1253" width="8" height="12" fill="#FEF1E6" rx="0" transform="matrix(.94694 .93382 -.56737 .49652 1268.753 -539.22)"/><rect x="1833" y="46" width="10" height="14" fill="#FEF1E6" rx="0" transform="matrix(.79202 .85216 -.6189 .5967 425.193 -1017.863)"/><rect x="27" y="1276" width="12" height="19" fill="#F9D5A7" rx="0" transform="matrix(-.03484 .99614 -.99583 -.22998 1291.733 1555.277)"/><rect x="1614" y="297" width="9" height="19" fill="#F9D5A7" rx="0" transform="matrix(-.86603 .39367 -.5 -.92742 3173.412 152.333)"/><rect x="1877" y="574" width="8" height="21" fill="#F9D5A7" rx="0" transform="matrix(-.9939 .06976 -.12204 -.99756 3852.504 1036.364)"/><rect x="1183" y="381" width="11" height="24" fill="#FFB085" rx="0" transform="matrix(.0105 .94505 -1.06327 -.46093 1717.285 -162.877)"/><rect x="1868" y="915" width="11" height="30" fill="#90AACB" rx="0" transform="matrix(-.72672 .75045 -.6782 -.6757 3900.667 -110.86)"/><rect x="895" y="541" width="7" height="15" fill="#90AACB" rx="0" transform="matrix(-.95025 .63279 -.40685 -.78143 1895.393 314.117)"/><rect x="1708" y="1268" width="13" height="27" fill="#FFB085" rx="0" transform="matrix(-.48437 .99449 -.92014 -.17535 3540.635 -439.786)"/><rect x="90" y="838" width="8" height="17" fill="#90AACB" rx="0" transform="matrix(-.58005 .67945 -.82756 -.7546 894.285 1437.983)"/><rect x="1710" y="554" width="12" height="23" fill="#FEF1E6" rx="0" transform="matrix(-.24651 1.00244 -.99756 0 2624.586 -1274.685)"/><rect x="320" y="36" width="12" height="23" fill="#FFB085" rx="0" transform="matrix(.61402 .87682 -.78598 .50623 161.435 -210.756)"/><rect x="1308" y="1052" width="10" height="20" fill="#FEF1E6" rx="0" transform="matrix(-.48235 .79235 -.88521 -.61905 3134.006 541.075)"/><rect x="1612" y="645" width="10" height="29" fill="#90AACB" rx="0" transform="matrix(.82808 .93773 -.7149 .39804 1028.702 -805.013)"/><rect x="1304" y="530" width="10" height="12" fill="#F9D5A7" rx="0" transform="matrix(.6617 .8322 -.7553 .56133 937.266 -968.75)"/><rect x="845" y="432" width="12" height="13" fill="#FEF1E6" rx="0" transform="matrix(-.34383 .98188 -.94537 -.2087 1539.064 -380.019)"/><rect x="1577" y="968" width="7" height="11" fill="#FFB085" rx="0" transform="matrix(1.05937 .68604 -.23899 .7892 448.459 -395.852)"/><rect x="1675" y="241" width="10" height="23" fill="#FEF1E6" rx="0" transform="matrix(.37171 .89657 -.91772 .47671 1284.192 -1670.335)"/><rect x="678" y="649" width="8" height="15" fill="#90AACB" rx="0" transform="matrix(-.19255 .92775 -1.00008 -.37483 1615.94 246.038)"/><rect x="1854" y="793" width="7" height="14" fill="#FEF1E6" rx="0" transform="matrix(.37591 .95338 -.92676 .30977 1994.832 -1348.608)"/><rect x="347" y="1267" width="10" height="13" fill="#FEF1E6" rx="0" transform="matrix(.98263 .12254 -.15771 .99801 22.786 -3.608)"/><rect x="540" y="800" width="9" height="17" fill="#F9D5A7" rx="0" transform="matrix(.97003 -.08801 .27453 1.00598 32.194 -33.44)"/><rect x="1485" y="1277" width="10" height="10" fill="#F9D5A7" rx="0" transform="matrix(.43346 .96962 -.9152 .2598 2326.009 -626.159)"/><rect x="659" y="1195" width="11" height="24" fill="#FEF1E6" rx="0" transform="matrix(-.42117 .8271 -.90306 -.60092 2010.825 1523.948)"/><rect x="1643" y="576" width="10" height="13" fill="#FEF1E6" rx="0" transform="matrix(-.71871 .86785 -.72042 -.52146 3223.962 -804.988)"/><rect x="1415" y="1381" width="13" height="20" fill="#FEF1E6" rx="0" transform="matrix(.105 .98178 -.99815 .19084 2565.146 -294.864)"/><rect x="415" y="165" width="8" height="16" fill="#FEF1E6" rx="0" transform="matrix(.41044 .99517 -.88716 .28536 370.52 -181.073)"/><rect x="1248" y="1115" width="11" height="25" fill="#F9D5A7" rx="0" transform="matrix(.39893 1.00874 -.89923 .23289 1664.993 -63.663)"/><rect x="1022" y="1011" width="13" height="25" fill="#FEF1E6" rx="0" transform="matrix(-.96418 .10686 -.18418 -1.01674 2056.15 2172.839)"/><rect x="1775" y="1122" width="8" height="8" fill="#FFB085" rx="0" transform="matrix(.65112 .8977 -.7822 .4574 1813.908 -1204.47)"/><rect x="1194" y="574" width="11" height="16" fill="#FFB085" rx="0" transform="matrix(.56584 .8977 -.82565 .4574 1109.69 -908.275)"/><rect x="1874" y="51" width="8" height="9" fill="#FEF1E6" rx="0" transform="matrix(-.10385 .97624 -.98448 -.37474 2105.676 -1182.913)"/><rect x="750" y="319" width="10" height="28" fill="#FFB085" rx="0" transform="matrix(-.21083 .83982 -1.05382 -.54539 1393.38 -79.884)"/><rect x="1582" y="1044" width="7" height="19" fill="#90AACB" rx="0" transform="matrix(.99997 .27568 -.1401 .9614 310.12 -424.108)"/><rect x="371" y="1085" width="8" height="21" fill="#FFB085" rx="0" transform="matrix(-1.00137 .05234 0 -.99863 693.102 2169.873)"/><rect x="901" y="333" width="13" height="35" fill="#F9D5A7" rx="0" transform="matrix(-.80707 .74873 -.60892 -.67416 1836.62 -204.104)"/><rect x="1951" y="368" width="10" height="11" fill="#FEF1E6" rx="0" transform="matrix(-.29363 .9783 -.95977 -.20794 2845.974 -1428.24)"/><rect x="194" y="681" width="11" height="27" fill="#F9D5A7" rx="0" transform="matrix(-.43314 .867 -.88275 -.54176 821.532 940.19)"/><rect x="1800" y="1234" width="13" height="31" fill="#FEF1E6" rx="0" transform="matrix(1.03483 .27631 -.01022 .9636 336.587 -580.007)"/><rect x="1157" y="40" width="10" height="18" fill="#F9D5A7" rx="0" transform="matrix(1.00049 .03495 .03572 1.00076 -3.776 -101.544)"/><rect x="42" y="1116" width="7" height="10" fill="#90AACB" rx="0" transform="matrix(-.41227 .92764 -.89445 -.41301 1243.217 1533.755)"/><rect x="524" y="587" width="12" height="18" fill="#FFB085" rx="0" transform="matrix(-.96291 .45399 -.31287 -.891 1132.416 886.425)"/><rect x="282" y="1137" width="9" height="15" fill="#F9D5A7" rx="0" transform="matrix(-.21005 .94098 -.98627 -.34249 1576.907 1281.903)"/><rect x="358" y="93" width="8" height="17" fill="#F9D5A7" rx="0" transform="matrix(-.7691 .53984 -.62159 -.86392 691.488 64.132)"/><rect x="1079" y="976" width="11" height="20" fill="#FEF1E6" rx="0" transform="matrix(.89363 .29602 -.45527 .96823 550.047 -461.468)"/><rect x="1410" y="856" width="7" height="11" fill="#F9D5A7" rx="0" transform="matrix(.105 .98178 -.99815 .19084 2066.48 -715.321)"/><rect x="212" y="168" width="8" height="17" fill="#FEF1E6" rx="0" transform="matrix(-.66821 .5189 -.81504 -.8636 551.06 243.364)"/><rect x="611" y="1221" width="11" height="31" fill="#90AACB" rx="0" transform="matrix(1.06498 .19268 .28899 .99127 58.205 -21.357)"/><rect x="576" y="677" width="13" height="36" fill="#90AACB" rx="0" transform="matrix(-.91463 .44166 -.38889 -.90554 1429.15 995.562)"/><rect x="1723" y="548" width="7" height="9" fill="#FEF1E6" rx="0" transform="matrix(.96768 .32577 -.25933 .9461 220.48 -472.363)"/><rect x="1853" y="596" width="8" height="17" fill="#FEF1E6" rx="0" transform="matrix(-.42733 .81013 -.9239 -.5886 3335.508 -641.424)"/><rect x="239" y="1193" width="9" height="23" fill="#FEF1E6" rx="0" transform="matrix(-.59311 .92493 -.81709 -.4118 1311.002 1436.733)"/><rect x="315" y="197" width="9" height="9" fill="#FFB085" rx="0" transform="matrix(-.9611 .54597 -.35165 -.84072 669.051 174.126)"/><rect x="1393" y="828" width="11" height="13" fill="#FEF1E6" rx="0" transform="matrix(-.94527 .5163 -.36368 -.85926 2946.52 731.72)"/><rect x="269" y="367" width="13" height="32" fill="#FEF1E6" rx="0" transform="matrix(-.86615 .32636 -.5486 -.94783 835.442 636.84)"/><rect x="1527" y="288" width="10" height="25" fill="#90AACB" rx="0" transform="matrix(1.00616 .17633 .03492 1 0 0)"/><rect x="692" y="174" width="12" height="24" fill="#FFB085" rx="0" transform="matrix(.92626 .4574 -.36838 .8977 141.307 -385.94)"/><rect x="1309" y="416" width="12" height="18" fill="#F9D5A7" rx="0" transform="matrix(.81168 1.0345 -.79411 .2199 836.843 -576.043)"/><rect x="742" y="405" width="10" height="17" fill="#90AACB" rx="0" transform="matrix(-.5799 .89934 -.82909 -.43864 1475.443 -103.017)"/><rect x="612" y="643" width="7" height="17" fill="#FEF1E6" rx="0" transform="matrix(-.46246 .99034 -.91146 -.2105 1435.726 81.603)"/><rect x="832" y="270" width="7" height="7" fill="#FEF1E6" rx="0" transform="matrix(-.9962 0 -.13976 -1.00382 1724.21 621.142)"/><rect x="78" y="612" width="12" height="27" fill="#90AACB" rx="0" transform="matrix(.86338 .70766 -.51905 .7328 358.554 124.016)"/><rect x="1300" y="1127" width="9" height="21" fill="#FEF1E6" rx="0" transform="matrix(-.38897 .7659 -.95543 -.68962 3052.457 1248.075)"/><rect x="656" y="1328" width="8" height="12" fill="#90AACB" rx="0" transform="matrix(-.31588 .86933 -.96793 -.50191 2330.588 1487.53)"/><rect x="371" y="1380" width="9" height="15" fill="#FFB085" rx="0" transform="matrix(1.02934 .84162 -.44032 .61147 1028.666 330.726)"/><rect x="686" y="1234" width="8" height="15" fill="#F9D5A7" rx="0" transform="matrix(-.83406 .2018 -.66443 -1.03819 2324.661 2628.754)"/><rect x="1567" y="1199" width="8" height="15" fill="#FFB085" rx="0" transform="matrix(-.3829 .67983 -1.01465 -.81018 3736.37 1656.92)"/><rect x="1302" y="885" width="9" height="25" fill="#FFB085" rx="0" transform="matrix(.4348 1.00492 -.94172 .12339 1758.55 -319.238)"/><rect x="232" y="242" width="9" height="15" fill="#FEF1E6" rx="0" transform="matrix(-.90018 .517 -.43607 -.86044 510.549 362.6)"/><rect x="651" y="1069" width="10" height="16" fill="#FEF1E6" rx="0" transform="matrix(-.81203 .51512 -.58987 -.8573 1900.09 1673.844)"/><rect x="444" y="264" width="9" height="17" fill="#FEF1E6" rx="0" transform="matrix(-.56782 .64859 -.84061 -.80094 952.377 311.688)"/><rect x="931" y="863" width="7" height="14" fill="#90AACB" rx="0" transform="matrix(.57728 .74416 -.824 .67005 1054.497 -457.34)"/><rect x="1212" y="359" width="12" height="19" fill="#FFB085" rx="0" transform="matrix(-.73318 .41084 -.70678 -.96788 2411.514 620.513)"/><rect x="814" y="607" width="11" height="25" fill="#FEF1E6" rx="0" transform="matrix(-.81517 .36173 -.52486 -.99384 1717.91 1220.924)"/><rect x="681" y="987" width="7" height="16" fill="#90AACB" rx="0" transform="matrix(-.40896 .85926 -.91806 -.5163 1932.56 968.415)"/><rect x="906" y="1185" width="13" height="31" fill="#FFB085" rx="0" transform="matrix(.61438 1.01265 -.85691 .21525 1609.472 262.555)"/><rect x="1869" y="272" width="12" height="33" fill="#FFB085" rx="0" transform="matrix(-.71238 .53065 -.74444 -.84921 3483.653 -559.73)"/><rect x="853" y="1258" width="10" height="28" fill="#FEF1E6" rx="0" transform="matrix(.7944 .66099 -.59904 .76038 866.206 -156.977)"/><rect x="1262" y="813" width="10" height="26" fill="#FFB085" rx="0" transform="matrix(.62982 .8834 -.75355 .5308 991.546 -415.825)"/><rect x="384" y="250" width="11" height="22" fill="#90AACB" rx="0" transform="matrix(-.91396 .43844 -.40693 -.89893 847.259 318.05)"/><rect x="407" y="60" width="13" height="23" fill="#FFB085" rx="0" transform="matrix(.34625 1.00986 -.95384 .10614 348.622 -280.757)"/><rect x="1063" y="147" width="9" height="21" fill="#F9D5A7" rx="0" transform="matrix(-1.00878 .32736 -.12503 -.95073 2159.3 -154.418)"/><rect x="1065" y="194" width="12" height="35" fill="#F9D5A7" rx="0" transform="matrix(-.99255 0 -.03372 -1.00751 2111.14 556.09)"/><rect x="1927" y="1146" width="10" height="26" fill="#90AACB" rx="0" transform="matrix(-.13916 .99197 -.9734 -.24733 3164.045 -60.18)"/><rect x="1946" y="521" width="8" height="12" fill="#90AACB" rx="0" transform="matrix(-.5967 .62932 -.85216 -.77715 3713.753 -290.619)"/><rect x="671" y="1158" width="11" height="28" fill="#FEF1E6" rx="0" transform="matrix(-.97043 -.15993 .12571 -1.00975 953.652 2607.418)"/><rect x="845" y="1248" width="11" height="31" fill="#FFB085" rx="0" transform="matrix(.85974 .88223 -.63711 .50936 1254.156 34.906)"/><rect x="211" y="1357" width="9" height="24" fill="#F9D5A7" rx="0" transform="matrix(-.31519 .89162 -.95396 -.47409 1998.68 1795.591)"/><rect x="633" y="908" width="12" height="27" fill="#90AACB" rx="0" transform="matrix(.17366 .96664 -1.0943 -.33284 1859.689 746.353)"/><rect x="1312" y="427" width="8" height="18" fill="#F9D5A7" rx="0" transform="matrix(.8467 .67076 -.55049 .74496 487.957 -679.505)"/><rect x="476" y="898" width="12" height="20" fill="#FEF1E6" rx="0" transform="matrix(-.47007 .90686 -.8835 -.42288 1429.887 871.696)"/><rect x="1481" y="754" width="13" height="35" fill="#90AACB" rx="0" transform="matrix(-.95112 .17407 -.35067 -.98721 3339.255 1170.186)"/><rect x="1415" y="56" width="8" height="10" fill="#FFB085" rx="0" transform="matrix(-.9548 .53284 -.34875 -.85272 2804.396 -792.224)"/><rect x="1471" y="585" width="13" height="17" fill="#FEF1E6" rx="0" transform="matrix(-.82938 .78298 -.60555 -.63405 3004.389 -368.464)"/><rect x="849" y="80" width="12" height="16" fill="#F9D5A7" rx="0" transform="matrix(-.02635 1.00692 -.99036 -.10583 953.736 -899.021)"/><rect x="191" y="274" width="8" height="13" fill="#90AACB" rx="0" transform="matrix(.8736 .84183 -.59865 .56782 259.5 -8.546)"/><rect x="190" y="54" width="13" height="17" fill="#FFB085" rx="0" transform="matrix(1.0745 .2646 .23083 .9875 .832 -9.446)"/><rect x="1594" y="787" width="8" height="23" fill="#90AACB" rx="0" transform="matrix(-.33222 .86655 -.96219 -.5003 3032.508 -130.955)"/><rect x="91" y="1168" width="7" height="19" fill="#FFB085" rx="0" transform="matrix(.91987 .76616 -.53335 .64289 1041.601 349.75)"/><rect x="1785" y="964" width="12" height="33" fill="#FEF1E6" rx="0" transform="matrix(-.53834 .74326 -.8607 -.66923 3759.333 336.77)"/><rect x="1988" y="1346" width="8" height="11" fill="#FFB085" rx="0" transform="matrix(.02192 1.00613 -.99506 -.05273 3508.31 -826.033)"/><rect x="1475" y="104" width="11" height="14" fill="#F9D5A7" rx="0" transform="matrix(1.01383 .12189 .0527 .9927 -4.647 -153.802)"/><rect x="1562" y="1305" width="10" height="23" fill="#90AACB" rx="0" transform="matrix(.65618 1.01168 -.8609 .19665 2066.284 -136.993)"/><rect x="185" y="156" width="10" height="29" fill="#F9D5A7" rx="0" transform="matrix(-.99096 -.09114 -.35431 -1.04171 470.818 423.517)"/><rect x="336" y="620" width="7" height="12" fill="#FFB085" rx="0" transform="matrix(.8736 .37483 -.5056 .92775 246.952 -70.172)"/><rect x="1368" y="853" width="9" height="9" fill="#F9D5A7" rx="0" transform="matrix(.73355 .94913 -.80102 .32681 1389.182 -605.344)"/><rect x="1105" y="826" width="13" height="29" fill="#FEF1E6" rx="0" transform="matrix(-.95943 -.21629 .10967 -1.01757 1881.325 2254.889)"/><rect x="1969" y="899" width="7" height="16" fill="#F9D5A7" rx="0" transform="matrix(.53213 .89223 -.84965 .45461 1806.45 -1368.631)"/><rect x="442" y="1226" width="10" height="14" fill="#FFB085" rx="0" transform="matrix(.96219 .5003 -.33222 .86655 624.293 -43.487)"/><rect x="609" y="890" width="12" height="14" fill="#FFB085" rx="0" transform="matrix(-.9919 .19268 -.08695 -.99127 1331.32 1581.24)"/><rect x="1485" y="373" width="9" height="12" fill="#FFB085" rx="0" transform="matrix(-.69466 .50696 -.71934 -.91458 2796.823 425.894)"/><rect x="467" y="108" width="9" height="26" fill="#90AACB" rx="0" transform="matrix(-.67308 .47409 -.84345 -.89162 944.61 71.62)"/><rect x="1948" y="699" width="11" height="14" fill="#FFB085" rx="0" transform="matrix(-.77353 .43844 -.69486 -.89893 4153.465 518.255)"/><rect x="1944" y="376" width="12" height="33" fill="#F9D5A7" rx="0" transform="matrix(.99626 -.05314 -.19278 1.01404 79.55 -245.717)"/><rect x="1000" y="423" width="13" height="25" fill="#90AACB" rx="0" transform="matrix(.85101 .60932 -.51185 .8086 341.685 -370.505)"/><rect x="16" y="72" width="10" height="18" fill="#F9D5A7" rx="0" transform="matrix(.92697 .45965 -.3563 .90211 25.974 1.602)"/><rect x="404" y="316" width="13" height="33" fill="#90AACB" rx="0" transform="matrix(.9559 .55996 -.36866 .83018 203.102 -151.884)"/><rect x="1840" y="15" width="10" height="10" fill="#F9D5A7" rx="0" transform="matrix(-.75936 .54672 -.65978 -.84187 3268.72 -810.443)"/><rect x="636" y="1012" width="13" height="33" fill="#FEF1E6" rx="0" transform="matrix(.5 .79575 -.86603 .62171 1211.957 -212.5)"/><rect x="1928" y="385" width="11" height="21" fill="#FFB085" rx="0" transform="matrix(-.90766 .48547 -.42238 -.87582 3794.504 -95.449)"/><rect x="994" y="364" width="13" height="33" fill="#FFB085" rx="0" transform="matrix(-.83261 .2989 -.62221 -.97767 2153.643 666.113)"/><rect x="1760" y="1136" width="12" height="22" fill="#F9D5A7" rx="0" transform="matrix(.9215 .45845 -.37272 .89976 493.039 -446.46)"/><rect x="1564" y="501" width="11" height="29" fill="#90AACB" rx="0" transform="matrix(.39584 .97496 -.9343 .22509 1510.006 -1075.93)"/><rect x="1459" y="703" width="7" height="14" fill="#FFB085" rx="0" transform="matrix(.98055 -.15838 .12278 1 0 0)"/><rect x="287" y="107" width="7" height="13" fill="#FFB085" rx="0" transform="matrix(-1.00701 -.15993 -.10525 -1.00975 604.167 336.314)"/><rect x="1106" y="597" width="11" height="16" fill="#FFB085" rx="0" transform="matrix(-.0725 1.01665 -.96284 -.29152 1653.315 34.083)"/><rect x="45" y="598" width="11" height="31" fill="#FFB085" rx="0" transform="matrix(-.14513 .92945 -1.01727 -.37552 790.724 800.477)"/><rect x="1017" y="1105" width="9" height="19" fill="#F9D5A7" rx="0" transform="matrix(-.87097 .48666 -.48355 -.87796 2539.796 1506.493)"/><rect x="535" y="258" width="11" height="12" fill="#FEF1E6" rx="0" transform="matrix(.568 .87682 -.81255 .50623 423.557 -257.96)"/><rect x="683" y="1236" width="7" height="10" fill="#FEF1E6" rx="0" transform="matrix(-.8671 .16195 -.69994 -1.02253 2558.994 2582.726)"/><rect x="1142" y="146" width="12" height="26" fill="#FEF1E6" rx="0" transform="matrix(.29457 .9848 -.96349 .17365 982.554 -999.17)"/><rect x="530" y="244" width="8" height="15" fill="#FEF1E6" rx="0" transform="matrix(-.64033 .42108 -.93662 -.94577 1239.703 407.587)"/><rect x="1248" y="1137" width="13" height="36" fill="#90AACB" rx="0" transform="matrix(-.5202 .94675 -.86691 -.34459 2838.37 211.27)"/><rect x="1185" y="313" width="9" height="13" fill="#F9D5A7" rx="0" transform="matrix(-.8275 .35886 -.63092 -.93486 2463.926 128.986)"/><rect x="1840" y="676" width="12" height="23" fill="#90AACB" rx="0" transform="matrix(.69931 .96069 -.7864 .34966 1286.124 -933.939)"/><rect x="1683" y="379" width="9" height="21" fill="#FFB085" rx="0" transform="matrix(.52534 .93984 -.8728 .34207 1217.484 -1359.165)"/><rect x="843" y="241" width="12" height="35" fill="#90AACB" rx="0" transform="matrix(.4668 1.03214 -.87812 .20063 670.36 -393.796)"/><rect x="1978" y="835" width="10" height="12" fill="#FEF1E6" rx="0" transform="matrix(-.62998 .82028 -.77799 -.57436 3873.67 -406.493)"/><rect x="1461" y="406" width="13" height="23" fill="#FFB085" rx="0" transform="matrix(-.92123 .1099 -.33361 -1.0457 2896.153 1169.61)"/><rect x="1025" y="862" width="13" height="28" fill="#FFB085" rx="0" transform="matrix(-.98495 .37512 -.22798 -.92846 2160.795 1248.332)"/><rect x="229" y="566" width="11" height="28" fill="#F9D5A7" rx="0" transform="matrix(-.42214 .91578 -.90402 -.40773 805.646 618.132)"/><rect x="128" y="1072" width="8" height="12" fill="#90AACB" rx="0" transform="matrix(-.2045 .99449 -.96949 -.17535 1315.453 1117.209)"/><rect x="1504" y="736" width="11" height="11" fill="#90AACB" rx="0" transform="matrix(-.36186 .85638 -.94159 -.53513 2803.889 57.734)"/><rect x="252" y="645" width="11" height="30" fill="#F9D5A7" rx="0" transform="matrix(1.08286 .45965 -.05034 .90211 212.835 -12.97)"/><rect x="1897" y="751" width="12" height="12" fill="#F9D5A7" rx="0" transform="matrix(.06693 .95469 -1.0692 -.3102 2867.367 -658.464)"/><rect x="636" y="983" width="9" height="25" fill="#90AACB" rx="0" transform="matrix(-.11739 .95996 -1.00582 -.29349 1968.712 616.778)"/><rect x="1757" y="279" width="11" height="29" fill="#FFB085" rx="0" transform="matrix(1.00366 .12233 -.0001 .99634 9.21 -60.341)"/><rect x="680" y="630" width="7" height="16" fill="#F9D5A7" rx="0" transform="matrix(1.0523 .58866 -.19591 .8407 258.39 -142.92)"/><rect x="933" y="653" width="13" height="30" fill="#90AACB" rx="0" transform="matrix(-.99112 .36034 -.19318 -.93872 1959.897 857.78)"/><rect x="140" y="186" width="8" height="15" fill="#F9D5A7" rx="0" transform="matrix(1.15263 .69386 -.11526 .7982 79.306 -11.284)"/><rect x="60" y="471" width="10" height="26" fill="#FFB085" rx="0" transform="matrix(.02853 .95157 -1.06242 -.38446 674.354 623.233)"/><rect x="192" y="821" width="13" height="22" fill="#FFB085" rx="0" transform="matrix(.40233 1.00598 -.95885 .08801 1068.024 586.983)"/><rect x="1294" y="403" width="7" height="11" fill="#90AACB" rx="0" transform="matrix(-.91302 .12814 -.36792 -1.04362 2588.942 1090.141)"/><rect x="1652" y="1030" width="10" height="22" fill="#FEF1E6" rx="0" transform="matrix(-.65207 .61716 -.7857 -.78993 3820.671 724.811)"/><rect x="977" y="754" width="13" height="22" fill="#90AACB" rx="0" transform="matrix(.84446 .87796 -.67091 .48666 942.743 -384.725)"/><rect x="1733" y="585" width="12" height="13" fill="#FEF1E6" rx="0" transform="matrix(-.34532 .79575 -.98687 -.62171 3085.732 -180.175)"/><rect x="1714" y="895" width="13" height="31" fill="#F9D5A7" rx="0" transform="matrix(-.56048 .9707 -.86946 -.27835 3370.54 -747.97)"/><rect x="462" y="1302" width="11" height="14" fill="#FEF1E6" rx="0" transform="matrix(.9836 .19107 -.1735 .98297 188.213 -42.538)"/><rect x="272" y="964" width="13" height="27" fill="#FFB085" rx="0" transform="matrix(-.75047 .60513 -.65663 -.80303 1296.564 1564.666)"/><rect x="1319" y="1166" width="11" height="29" fill="#FFB085" rx="0" transform="matrix(-.69476 .7071 -.71945 -.7071 3114.63 1078.677)"/><rect x="323" y="780" width="12" height="19" fill="#F9D5A7" rx="0" transform="matrix(.44189 .83106 -.90522 .56056 844.695 50.514)"/><rect x="1054" y="441" width="9" height="10" fill="#90AACB" rx="0" transform="matrix(-.62512 .51764 -.84911 -.89658 2214.455 581.577)"/><rect x="95" y="311" width="9" height="19" fill="#90AACB" rx="0" transform="matrix(-.0002 .99386 -1.00614 -.19319 433.729 299.286)"/><rect x="636" y="356" width="8" height="14" fill="#FFB085" rx="0" transform="matrix(.03422 1.0055 -.99452 0 949.026 -213.259)"/><rect x="1434" y="951" width="9" height="18" fill="#F9D5A7" rx="0" transform="matrix(.94102 .3439 -.32236 .94487 493.613 -592.972)"/><rect x="1229" y="459" width="8" height="19" fill="#F9D5A7" rx="0" transform="matrix(.83814 .54497 -.54434 .83918 436.738 -553.549)"/><rect x="1500" y="218" width="12" height="35" fill="#F9D5A7" rx="0" transform="matrix(.84002 .6905 -.54742 .74047 368.866 -1217.3)"/><rect x="346" y="1155" width="8" height="8" fill="#FEF1E6" rx="0" transform="matrix(.9835 .52285 -.20914 .9056 270.272 33.424)"/><rect x="49" y="432" width="8" height="13" fill="#FFB085" rx="0" transform="matrix(1.08021 .31205 .11998 .9604 79.48 8.273)"/><rect x="1163" y="102" width="10" height="29" fill="#FEF1E6" rx="0" transform="matrix(-.99188 -.11055 -.39154 -1.05183 2454.28 770.337)"/><rect x="1432" y="1374" width="13" height="33" fill="#F9D5A7" rx="0" transform="matrix(-.05218 .99451 -.98856 -.32314 2824.245 849.01)"/><rect x="1432" y="212" width="13" height="34" fill="#90AACB" rx="0" transform="matrix(.43722 .98829 -.9426 .15653 1095.039 -1178.268)"/><rect x="1250" y="346" width="13" height="23" fill="#90AACB" rx="0" transform="matrix(.9931 -.01755 .09012 1.00536 16.204 -111.928)"/><rect x="14" y="305" width="13" height="20" fill="#90AACB" rx="0" transform="matrix(.9662 .46789 -.24098 .91828 71.014 21.26)"/><rect x="72" y="1376" width="7" height="10" fill="#FEF1E6" rx="0" transform="matrix(1.00857 .20995 -.01799 .98776 97.129 11.662)"/><rect x="1235" y="134" width="10" height="18" fill="#FFB085" rx="0" transform="matrix(.29617 1.03512 -.97124 -.01807 1036.544 -805.706)"/><rect x="943" y="1388" width="9" height="15" fill="#F9D5A7" rx="0" transform="matrix(.4099 .8573 -.92017 .51512 1698.283 -152.174)"/><rect x="1116" y="634" width="10" height="14" fill="#FEF1E6" rx="0" transform="matrix(.72997 .80914 -.70553 .58787 859.569 -623.307)"/><rect x="1344" y="1234" width="12" height="13" fill="#FEF1E6" rx="0" transform="matrix(-.06988 1.00046 -1.00076 .01746 2623.249 -178.923)"/><rect x="821" y="710" width="9" height="11" fill="#FEF1E6" rx="0" transform="matrix(1.09978 .79355 -.30414 .68982 435.997 -164.92)"/><rect x="768" y="169" width="9" height="18" fill="#F9D5A7" rx="0" transform="matrix(-.43387 .82308 -.888 -.62024 1246.304 -154.825)"/><rect x="982" y="1293" width="11" height="21" fill="#FEF1E6" rx="0" transform="matrix(-.89999 .45845 -.41492 -.89976 2162.78 2162.404)"/><rect x="1550" y="199" width="9" height="26" fill="#FEF1E6" rx="0" transform="matrix(.99295 -.05273 .01827 1.00613 8.934 -110.2)"/><rect x="1912" y="75" width="13" height="22" fill="#FEF1E6" rx="0" transform="matrix(.9567 .92502 -.55075 .51274 302.797 -1072.147)"/><rect x="396" y="350" width="10" height="14" fill="#FEF1E6" rx="0" transform="matrix(.1376 1.01527 -.98256 .01772 674.18 14.256)"/><rect x="1604" y="1248" width="7" height="9" fill="#FFB085" rx="0" transform="matrix(.76897 .7071 -.64524 .7071 1289.126 -769.825)"/><rect x="720" y="1133" width="13" height="32" fill="#90AACB" rx="0" transform="matrix(.98289 .17581 -.11363 .99708 362.763 -239.443)"/><rect x="1294" y="752" width="9" height="25" fill="#FFB085" rx="0" transform="matrix(-.3534 .91853 -.9008 -.4884 2265.98 317.503)"/><rect x="165" y="372" width="11" height="17" fill="#FFB085" rx="0" transform="matrix(.51185 .8086 -.85101 .60932 425.567 -16.214)"/><rect x="1232" y="208" width="13" height="13" fill="#F9D5A7" rx="0" transform="matrix(-.76698 .56966 -.61834 -.84455 2273.192 -69.126)"/><rect x="363" y="537" width="8" height="10" fill="#F9D5A7" rx="0" transform="matrix(1.01725 .69731 -.38069 .72209 397.682 -73.177)"/><rect x="1250" y="842" width="12" height="21" fill="#FEF1E6" rx="0" transform="matrix(.70658 .8708 -.74043 .50275 1247.845 -801.828)"/><rect x="847" y="1345" width="7" height="12" fill="#90AACB" rx="0" transform="matrix(.14248 .99467 -1.02033 -.10454 2423.115 661.115)"/><rect x="1161" y="61" width="10" height="19" fill="#90AACB" rx="0" transform="matrix(-.69573 .63186 -.69214 -.80874 1990.316 -340.036)"/><rect x="656" y="521" width="7" height="19" fill="#FEF1E6" rx="0" transform="matrix(-.99224 .01755 -.13942 -1.00536 1398.313 1121.584)"/><rect x="969" y="843" width="12" height="29" fill="#FFB085" rx="0" transform="matrix(-.74096 .33869 -.80066 -.98362 2646.52 1650.312)"/><rect x="647" y="287" width="12" height="21" fill="#FEF1E6" rx="0" transform="matrix(.35883 .99695 -.96534 .10478 787.702 -430.344)"/><rect x="505" y="722" width="7" height="17" fill="#F9D5A7" rx="0" transform="matrix(.98841 .1046 -.15682 .99513 54.984 -31.869)"/><rect x="824" y="298" width="9" height="17" fill="#F9D5A7" rx="0" transform="matrix(.7814 .63405 -.61221 .78298 325.841 -357.065)"/><rect x="31" y="307" width="12" height="33" fill="#F9D5A7" rx="0" transform="matrix(-.16285 .92177 -1.01575 -.39127 434.879 417.909)"/><rect x="207" y="635" width="12" height="28" fill="#FFB085" rx="0" transform="matrix(-.97186 .5339 -.3177 -.85442 549.724 1063.643)"/><rect x="1014" y="256" width="7" height="13" fill="#F9D5A7" rx="0" transform="matrix(-.72611 .6887 -.67335 -.73854 1876.083 -101.386)"/><rect x="873" y="49" width="11" height="19" fill="#90AACB" rx="0" transform="matrix(.9962 .2808 -.08716 .97925 8.442 -74.703)"/><rect x="1769" y="1097" width="13" height="21" fill="#F9D5A7" rx="0" transform="matrix(-.97164 .05299 -.33206 -1.01108 4038.914 2414.4)"/><rect x="1540" y="651" width="13" height="14" fill="#FFB085" rx="0" transform="matrix(-.6791 .58922 -.76247 -.811 3256.088 172.262)"/><rect x="739" y="487" width="8" height="16" fill="#F9D5A7" rx="0" transform="matrix(.98676 .29398 -.17402 .96157 105.984 -121.315)"/><rect x="1189" y="630" width="10" height="21" fill="#90AACB" rx="0" transform="matrix(1.01166 .37512 -.16186 .92846 213.715 -339.495)"/><rect x="399" y="147" width="8" height="18" fill="#F9D5A7" rx="0" transform="matrix(.78213 .88632 -.7124 .47126 250.184 -239.446)"/><rect x="574" y="655" width="7" height="19" fill="#F9D5A7" rx="0" transform="matrix(-.92186 .26366 -.35228 -.984 1276.01 1278.36)"/><rect x="1915" y="1285" width="7" height="10" fill="#FFB085" rx="0" transform="matrix(-.84314 .25586 -.52673 -1.0262 4181.487 2783.526)"/><rect x="1384" y="129" width="12" height="19" fill="#FFB085" rx="0" transform="matrix(.969 .24225 -.24145 .97163 79.97 -405.65)"/><rect x="1567" y="735" width="10" height="28" fill="#FEF1E6" rx="0" transform="matrix(-.94552 .15885 -.32557 -1.00293 3302.206 1527.668)"/><rect x="11" y="1317" width="8" height="13" fill="#FEF1E6" rx="0" transform="matrix(-.00329 1 -.99948 -.15838 1741.769 1515.746)"/><rect x="407" y="222" width="7" height="18" fill="#90AACB" rx="0" transform="matrix(-.82656 .57577 -.55636 -.82228 850.269 220.509)"/><rect x="968" y="1031" width="10" height="14" fill="#90AACB" rx="0" transform="matrix(-.47473 .71934 -.93172 -.69466 2719.388 1059.138)"/><rect x="693" y="153" width="11" height="30" fill="#FFB085" rx="0" transform="matrix(.25087 1.00137 -.98109 .07002 716.734 -604.335)"/><rect x="1227" y="79" width="11" height="31" fill="#FFB085" rx="0" transform="matrix(-.89031 .3473 -.43328 -.95419 2348.948 -26.049)"/><rect x="53" y="594" width="10" height="20" fill="#90AACB" rx="0" transform="matrix(.92435 .29277 -.3922 .95762 209.786 5.579)"/><rect x="1720" y="905" width="11" height="16" fill="#90AACB" rx="0" transform="matrix(-.68544 .5201 -.78195 -.8656 3825.888 1048.356)"/><rect x="1938" y="29" width="12" height="32" fill="#FEF1E6" rx="0" transform="matrix(.96755 -.14054 .23087 1 0 0)"/><rect x="838" y="811" width="12" height="15" fill="#FFB085" rx="0" transform="matrix(.30778 .93415 -.94615 .37742 1396.123 -382.468)"/><rect x="1220" y="541" width="12" height="14" fill="#F9D5A7" rx="0" transform="matrix(1.06458 .46413 -.0652 .91091 128.425 -259.612)"/><rect x="645" y="589" width="12" height="12" fill="#F9D5A7" rx="0" transform="matrix(.0327 .99832 -.99825 .10493 1120.415 -60.384)"/><rect x="1889" y="314" width="8" height="9" fill="#FEF1E6" rx="0" transform="matrix(-.80752 .23402 -.77547 -1.01364 3915.59 741.16)"/><rect x="1000" y="402" width="7" height="9" fill="#FEF1E6" rx="0" transform="matrix(.12804 1.00736 -.99046 .01758 1343.038 -734.744)"/><rect x="856" y="645" width="10" height="23" fill="#FFB085" rx="0" transform="matrix(-.95423 .0363 -.21806 -1.03967 1746.713 1554.669)"/><rect x="540" y="239" width="11" height="25" fill="#F9D5A7" rx="0" transform="matrix(-.75575 .61566 -.65696 -.78801 1136.165 113.841)"/><rect x="578" y="1294" width="7" height="14" fill="#90AACB" rx="0" transform="matrix(.03404 .98703 -1.01975 -.19186 2055.652 1037.768)"/><rect x="140" y="406" width="10" height="18" fill="#F9D5A7" rx="0" transform="matrix(.60943 .87796 -.8012 .48666 482.008 73.045)"/><rect x="1930" y="826" width="9" height="17" fill="#FEF1E6" rx="0" transform="matrix(-.97045 .4068 -.27854 -.91368 3945.97 776.251)"/><rect x="190" y="1142" width="12" height="35" fill="#FEF1E6" rx="0" transform="matrix(1.04502 .34223 -.05085 .94027 447.024 -4.659)"/><rect x="39" y="274" width="7" height="8" fill="#FFB085" rx="0" transform="matrix(.82294 .93064 -.70813 .41435 281.088 131.52)"/><rect x="503" y="877" width="11" height="11" fill="#FEF1E6" rx="0" transform="matrix(.3493 1.02172 -.96655 .03568 1287.968 439.555)"/><rect x="682" y="1246" width="9" height="9" fill="#90AACB" rx="0" transform="matrix(-.33869 .81915 -.98362 -.57358 2507.605 1405.41)"/><rect x="1665" y="1065" width="12" height="31" fill="#FFB085" rx="0" transform="matrix(.89599 .50275 -.43715 .8708 602.273 -524.868)"/><rect x="1818" y="703" width="13" height="21" fill="#90AACB" rx="0" transform="matrix(-.97437 .34459 -.22495 -.94675 3762.74 536.283)"/><rect x="113" y="682" width="11" height="15" fill="#FFB085" rx="0" transform="matrix(.26563 .9994 -.99133 .0349 929.731 547.009)"/><rect x="1978" y="784" width="10" height="21" fill="#F9D5A7" rx="0" transform="matrix(.44597 1.02058 -.91715 .14343 1917.445 -848.858)"/><rect x="1114" y="20" width="8" height="13" fill="#FEF1E6" rx="0" transform="matrix(-.84931 .53652 -.50466 -.85862 2045.01 -373.507)"/><rect x="640" y="1335" width="10" height="24" fill="#FFB085" rx="0" transform="matrix(-.96423 .10454 -.39126 -.99467 2202.331 2608.135)"/><rect x="1978" y="306" width="7" height="19" fill="#F9D5A7" rx="0" transform="matrix(1.00861 .06976 .08824 .99756 5.064 -137.454)"/><rect x="1398" y="741" width="13" height="28" fill="#90AACB" rx="0" transform="matrix(-.53377 .93415 -.85484 -.37742 2769.049 -444.508)"/><rect x="1713" y="260" width="11" height="24" fill="#FFB085" rx="0" transform="matrix(-.91118 .27907 -.40563 -.97324 3385.194 329.319)"/><rect x="223" y="58" width="13" height="31" fill="#FFB085" rx="0" transform="matrix(-.16318 .79355 -1.1183 -.68982 391.605 16.652)"/><rect x="958" y="169" width="9" height="19" fill="#FFB085" rx="0" transform="matrix(-.87955 .44005 -.46915 -.90223 1904.387 -168.204)"/><rect x="1095" y="706" width="11" height="31" fill="#F9D5A7" rx="0" transform="matrix(1.0064 .2082 -.06843 .97949 171.366 -271.998)"/><rect x="1691" y="1138" width="12" height="21" fill="#FEF1E6" rx="0" transform="matrix(-.98434 .15653 -.17366 -.98829 3623.967 1958.66)"/></svg>